<?xml version="1.0" encoding="UTF-8"?>
<svg id="Lager_1" xmlns="http://www.w3.org/2000/svg" version="1.1" viewBox="0 0 85.4 85.4">
  <!-- Generator: Adobe Illustrator 30.0.0, SVG Export Plug-In . SVG Version: 2.1.1 Build 123)  -->
  <defs>
    <style>
      .st0 {
        fill: #61c555;
      }

      .st0, .st1, .st2 {
        fill-rule: evenodd;
      }

      .st1 {
        fill: #2dac2f;
      }

      .st2 {
        fill: #2a6218;
      }
    </style>
  </defs>
  <path class="st1" d="M85.4,42.7C85.4,19.1,66.3,0,42.7,0S0,19.1,0,42.7s19.1,42.7,42.7,42.7,42.7-19.1,42.7-42.7Z"/>
  <path class="st0" d="M81.8,42.7c0-21.6-17.5-39.1-39.1-39.1S3.6,21.1,3.6,42.7s17.5,39.1,39.1,39.1,39.1-17.5,39.1-39.1Z"/>
  <path class="st2" d="M20.8,54.2v-26.7c0-3.6,2.9-6.5,6.5-6.5h26.7L20.8,54.2ZM64.5,31v26.8c0,3.6-2.9,6.5-6.5,6.5h-26.8l33.3-33.3Z"/>
</svg>